ISO-10303-21;
HEADER;
FILE_DESCRIPTION (( 'STEP AP203' ),
    '1' );
FILE_NAME ('1522-0010-0060.STEP',
    '2021-02-26T19:46:42',
    ( '' ),
    ( '' ),
    'SwSTEP 2.0',
    'SolidWorks 2016',
    '' );
FILE_SCHEMA (( 'CONFIG_CONTROL_DESIGN' ));
ENDSEC;

DATA;
#1 = CARTESIAN_POINT ( 'NONE',  ( 4.929203366568097200E-016, 2.900000000000000800, 4.025000000000000400 ) ) ;
#2 = VECTOR ( 'NONE', #380, 1000.000000000000000 ) ;
#3 = CC_DESIGN_PERSON_AND_ORGANIZATION_ASSIGNMENT ( #59, #427, ( #27 ) ) ;
#4 = VECTOR ( 'NONE', #53, 1000.000000000000000 ) ;
#5 = APPLICATION_PROTOCOL_DEFINITION ( 'international standard', 'config_control_design', 1994, #385 ) ;
#6 = VERTEX_POINT ( 'NONE', #365 ) ;
#7 = DIRECTION ( 'NONE',  ( 0.0000000000000000000, 1.000000000000000000, 0.0000000000000000000 ) ) ;
#8 = DATE_TIME_ROLE ( 'classification_date' ) ;
#9 = AXIS2_PLACEMENT_3D ( 'NONE', #56, #224, #21 ) ;
#10 = PERSON_AND_ORGANIZATION_ROLE ( 'creator' ) ;
#11 = AXIS2_PLACEMENT_3D ( 'NONE', #163, #280, #143 ) ;
#12 = CARTESIAN_POINT ( 'NONE',  ( 0.0000000000000000000, 2.900000000000000800, 0.0000000000000000000 ) ) ;
#13 = CIRCLE ( 'NONE', #310, 4.874999999999999100 ) ;
#14 = EDGE_LOOP ( 'NONE', ( #104, #78, #332, #20 ) ) ;
#15 = DIRECTION ( 'NONE',  ( 0.0000000000000000000, 0.0000000000000000000, -1.000000000000000000 ) ) ;
#16 =( GEOMETRIC_REPRESENTATION_CONTEXT ( 3 ) GLOBAL_UNCERTAINTY_ASSIGNED_CONTEXT ( ( #135 ) ) GLOBAL_UNIT_ASSIGNED_CONTEXT ( ( #105, #350, #210 ) ) REPRESENTATION_CONTEXT ( 'NONE', 'WORKASPACE' ) );
#17 = DATE_AND_TIME ( #304, #101 ) ;
#18 = DIRECTION ( 'NONE',  ( -0.0000000000000000000, -1.000000000000000000, -0.0000000000000000000 ) ) ;
#19 = VECTOR ( 'NONE', #445, 1000.000000000000000 ) ;
#20 = ORIENTED_EDGE ( 'NONE', *, *, #287, .F. ) ;
#21 = DIRECTION ( 'NONE',  ( 0.0000000000000000000, 0.0000000000000000000, -1.000000000000000000 ) ) ;
#22 = PERSON_AND_ORGANIZATION ( #436, #112 ) ;
#23 = ORIENTED_EDGE ( 'NONE', *, *, #209, .F. ) ;
#24 = EDGE_LOOP ( 'NONE', ( #94, #394, #289, #155 ) ) ;
#25 = AXIS2_PLACEMENT_3D ( 'NONE', #31, #98, #202 ) ;
#26 = CARTESIAN_POINT ( 'NONE',  ( 5.970153145843346400E-016, 3.000000000000000000, 4.874999999999999100 ) ) ;
#27 = PRODUCT ( '1522-0010-0060', '1522-0010-0060', '', ( #150 ) ) ;
#28 = DIRECTION ( 'NONE',  ( 0.0000000000000000000, 1.000000000000000000, 0.0000000000000000000 ) ) ;
#29 = APPROVAL_PERSON_ORGANIZATION ( #204, #414, #290 ) ;
#30 = ORIENTED_EDGE ( 'NONE', *, *, #258, .F. ) ;
#31 = CARTESIAN_POINT ( 'NONE',  ( 0.0000000000000000000, -2.899999999999999000, 0.0000000000000000000 ) ) ;
#32 = APPROVAL ( #356, 'UNSPECIFIED' ) ;
#33 = CARTESIAN_POINT ( 'NONE',  ( 0.0000000000000000000, 3.000000000000000000, 0.0000000000000000000 ) ) ;
#34 = AXIS2_PLACEMENT_3D ( 'NONE', #351, #420, #320 ) ;
#35 = CARTESIAN_POINT ( 'NONE',  ( 0.0000000000000000000, -3.000000000000000000, 0.0000000000000000000 ) ) ;
#36 = LINE ( 'NONE', #400, #316 ) ;
#37 = EDGE_LOOP ( 'NONE', ( #237, #299 ) ) ;
#38 = DIRECTION ( 'NONE',  ( 0.0000000000000000000, 0.0000000000000000000, 1.000000000000000000 ) ) ;
#39 = EDGE_CURVE ( 'NONE', #86, #398, #54, .T. ) ;
#40 = CARTESIAN_POINT ( 'NONE',  ( 0.0000000000000000000, 3.000000000000000000, 0.0000000000000000000 ) ) ;
#41 = DIRECTION ( 'NONE',  ( 0.0000000000000000000, 0.0000000000000000000, -1.000000000000000000 ) ) ;
#42 = PERSON_AND_ORGANIZATION ( #436, #112 ) ;
#43 = AXIS2_PLACEMENT_3D ( 'NONE', #366, #18, #51 ) ;
#44 = ORIENTED_EDGE ( 'NONE', *, *, #435, .F. ) ;
#45 = APPROVAL_STATUS ( 'not_yet_approved' ) ;
#46 = FACE_BOUND ( 'NONE', #37, .T. ) ;
#47 = FACE_OUTER_BOUND ( 'NONE', #216, .T. ) ;
#48 = APPLICATION_PROTOCOL_DEFINITION ( 'international standard', 'config_control_design', 1994, #387 ) ;
#49 = DIRECTION ( 'NONE',  ( 0.0000000000000000000, -1.000000000000000000, 0.0000000000000000000 ) ) ;
#50 = ADVANCED_FACE ( 'NONE', ( #47 ), #81, .F. ) ;
#51 = DIRECTION ( 'NONE',  ( 0.0000000000000000000, 0.0000000000000000000, 1.000000000000000000 ) ) ;
#52 = AXIS2_PLACEMENT_3D ( 'NONE', #308, #28, #67 ) ;
#53 = DIRECTION ( 'NONE',  ( 0.0000000000000000000, 0.7071067811865444600, 0.7071067811865505700 ) ) ;
#54 = LINE ( 'NONE', #369, #129 ) ;
#55 = ORIENTED_EDGE ( 'NONE', *, *, #193, .T. ) ;
#56 = CARTESIAN_POINT ( 'NONE',  ( 0.0000000000000000000, -3.000000000000000000, 0.0000000000000000000 ) ) ;
#57 = ADVANCED_FACE ( 'NONE', ( #421 ), #438, .F. ) ;
#58 = DIRECTION ( 'NONE',  ( 0.0000000000000000000, 1.000000000000000000, 0.0000000000000000000 ) ) ;
#59 = PERSON_AND_ORGANIZATION ( #436, #112 ) ;
#60 = ORIENTED_EDGE ( 'NONE', *, *, #296, .T. ) ;
#61 = EDGE_CURVE ( 'NONE', #312, #162, #347, .T. ) ;
#62 = DIRECTION ( 'NONE',  ( -0.0000000000000000000, -1.000000000000000000, -0.0000000000000000000 ) ) ;
#63 = EDGE_CURVE ( 'NONE', #448, #141, #236, .T. ) ;
#64 = DIRECTION ( 'NONE',  ( 0.0000000000000000000, -0.0000000000000000000, 1.000000000000000000 ) ) ;
#65 = ORIENTED_EDGE ( 'NONE', *, *, #92, .T. ) ;
#66 = VERTEX_POINT ( 'NONE', #260 ) ;
#67 = DIRECTION ( 'NONE',  ( 0.0000000000000000000, 0.0000000000000000000, 1.000000000000000000 ) ) ;
#68 = AXIS2_PLACEMENT_3D ( 'NONE', #87, #297, #85 ) ;
#69 = DIRECTION ( 'NONE',  ( 0.0000000000000000000, -0.7071067811865444600, -0.7071067811865505700 ) ) ;
#70 = DATE_AND_TIME ( #154, #90 ) ;
#71 = CONICAL_SURFACE ( 'NONE', #11, 4.874999999999999100, 0.7853981633974526100 ) ;
#72 = FACE_OUTER_BOUND ( 'NONE', #166, .T. ) ;
#73 = DIRECTION ( 'NONE',  ( -0.0000000000000000000, -1.000000000000000000, -0.0000000000000000000 ) ) ;
#74 = PLANE ( 'NONE',  #338 ) ;
#75 = DIRECTION ( 'NONE',  ( 0.0000000000000000000, 1.000000000000000000, 0.0000000000000000000 ) ) ;
#76 = PRODUCT_DEFINITION_FORMATION_WITH_SPECIFIED_SOURCE ( 'ANY', '', #27, .NOT_KNOWN. ) ;
#77 = ORIENTED_EDGE ( 'NONE', *, *, #440, .F. ) ;
#78 = ORIENTED_EDGE ( 'NONE', *, *, #79, .F. ) ;
#79 = EDGE_CURVE ( 'NONE', #6, #294, #293, .T. ) ;
#80 = VECTOR ( 'NONE', #145, 1000.000000000000000 ) ;
#81 = CONICAL_SURFACE ( 'NONE', #9, 4.125000000000002700, 0.7853981633974526100 ) ;
#82 = EDGE_CURVE ( 'NONE', #374, #141, #405, .T. ) ;
#83 = LINE ( 'NONE', #243, #161 ) ;
#84 = EDGE_CURVE ( 'NONE', #322, #86, #36, .T. ) ;
#85 = DIRECTION ( 'NONE',  ( 0.0000000000000000000, 0.0000000000000000000, -1.000000000000000000 ) ) ;
#86 = VERTEX_POINT ( 'NONE', #167 ) ;
#87 = CARTESIAN_POINT ( 'NONE',  ( 0.0000000000000000000, -3.000000000000000000, 0.0000000000000000000 ) ) ;
#88 = APPROVAL ( #182, 'UNSPECIFIED' ) ;
#89 = ADVANCED_FACE ( 'NONE', ( #72 ), #306, .T. ) ;
#90 = LOCAL_TIME ( 13, 46, 42.00000000000000000, #339 ) ;
#91 = FACE_OUTER_BOUND ( 'NONE', #14, .T. ) ;
#92 = EDGE_CURVE ( 'NONE', #374, #354, #442, .T. ) ;
#93 = FACE_OUTER_BOUND ( 'NONE', #283, .T. ) ;
#94 = ORIENTED_EDGE ( 'NONE', *, *, #115, .F. ) ;
#95 = ORIENTED_EDGE ( 'NONE', *, *, #391, .T. ) ;
#96 = CC_DESIGN_PERSON_AND_ORGANIZATION_ASSIGNMENT ( #160, #184, ( #76 ) ) ;
#97 = DIRECTION ( 'NONE',  ( -0.0000000000000000000, -1.000000000000000000, -0.0000000000000000000 ) ) ;
#98 = DIRECTION ( 'NONE',  ( -0.0000000000000000000, 1.000000000000000000, -0.0000000000000000000 ) ) ;
#99 = CARTESIAN_POINT ( 'NONE',  ( 0.0000000000000000000, 3.000000000000000000, 0.0000000000000000000 ) ) ;
#100 = EDGE_CURVE ( 'NONE', #66, #200, #337, .T. ) ;
#101 = LOCAL_TIME ( 13, 46, 42.00000000000000000, #211 ) ;
#102 = DIRECTION ( 'NONE',  ( 0.0000000000000000000, 0.0000000000000000000, 1.000000000000000000 ) ) ;
#103 = LINE ( 'NONE', #152, #206 ) ;
#104 = ORIENTED_EDGE ( 'NONE', *, *, #296, .F. ) ;
#105 =( LENGTH_UNIT ( ) NAMED_UNIT ( * ) SI_UNIT ( .MILLI., .METRE. ) );
#106 = AXIS2_PLACEMENT_3D ( 'NONE', #329, #335, #257 ) ;
#107 = LINE ( 'NONE', #133, #19 ) ;
#108 = FACE_OUTER_BOUND ( 'NONE', #186, .T. ) ;
#109 = ORIENTED_EDGE ( 'NONE', *, *, #124, .F. ) ;
#110 = CC_DESIGN_PERSON_AND_ORGANIZATION_ASSIGNMENT ( #22, #424, ( #397 ) ) ;
#111 = LOCAL_TIME ( 13, 46, 42.00000000000000000, #328 ) ;
#112 = ORGANIZATION ( 'UNSPECIFIED', 'UNSPECIFIED', '' ) ;
#113 = ORIENTED_EDGE ( 'NONE', *, *, #209, .T. ) ;
#114 = ADVANCED_BREP_SHAPE_REPRESENTATION ( '1522-0010-0060', ( #402, #367 ), #16 ) ;
#115 = EDGE_CURVE ( 'NONE', #244, #448, #213, .T. ) ;
#116 = PRODUCT_DEFINITION_SHAPE ( 'NONE', 'NONE',  #355 ) ;
#117 = DATE_TIME_ROLE ( 'creation_date' ) ;
#118 = CALENDAR_DATE ( 2021, 26, 2 ) ;
#119 = CIRCLE ( 'NONE', #439, 4.025000000000000400 ) ;
#120 = ORIENTED_EDGE ( 'NONE', *, *, #124, .T. ) ;
#121 = EDGE_LOOP ( 'NONE', ( #358, #217, #313, #207 ) ) ;
#122 = CC_DESIGN_PERSON_AND_ORGANIZATION_ASSIGNMENT ( #42, #218, ( #76 ) ) ;
#123 = ADVANCED_FACE ( 'NONE', ( #199 ), #254, .F. ) ;
#124 = EDGE_CURVE ( 'NONE', #200, #86, #268, .T. ) ;
#125 = EDGE_LOOP ( 'NONE', ( #443, #364 ) ) ;
#126 = ORIENTED_EDGE ( 'NONE', *, *, #287, .T. ) ;
#127 = CARTESIAN_POINT ( 'NONE',  ( 0.0000000000000000000, 2.900000000000000800, 4.025000000000000400 ) ) ;
#128 = AXIS2_PLACEMENT_3D ( 'NONE', #272, #164, #407 ) ;
#129 = VECTOR ( 'NONE', #302, 1000.000000000000000 ) ;
#130 = ORIENTED_EDGE ( 'NONE', *, *, #79, .T. ) ;
#131 = DIRECTION ( 'NONE',  ( 0.0000000000000000000, 0.0000000000000000000, 1.000000000000000000 ) ) ;
#132 = EDGE_CURVE ( 'NONE', #168, #398, #373, .T. ) ;
#133 = CARTESIAN_POINT ( 'NONE',  ( 0.0000000000000000000, 3.000000000000000000, -4.025000000000000400 ) ) ;
#134 = DIRECTION ( 'NONE',  ( 0.0000000000000000000, 0.0000000000000000000, 1.000000000000000000 ) ) ;
#135 = UNCERTAINTY_MEASURE_WITH_UNIT (LENGTH_MEASURE( 1.000000000000000100E-005 ), #105, 'distance_accuracy_value', 'NONE');
#136 = ORIENTED_EDGE ( 'NONE', *, *, #148, .T. ) ;
#137 = CARTESIAN_POINT ( 'NONE',  ( 5.051668046482835700E-016, -3.000000000000000000, 4.125000000000002700 ) ) ;
#138 = CC_DESIGN_APPROVAL ( #414, ( #397 ) ) ;
#139 = DIRECTION ( 'NONE',  ( 0.0000000000000000000, -0.0000000000000000000, 1.000000000000000000 ) ) ;
#140 = CYLINDRICAL_SURFACE ( 'NONE', #266, 4.974999999999999600 ) ;
#141 = VERTEX_POINT ( 'NONE', #228 ) ;
#142 = DIRECTION ( 'NONE',  ( -0.0000000000000000000, -1.000000000000000000, -0.0000000000000000000 ) ) ;
#143 = DIRECTION ( 'NONE',  ( 0.0000000000000000000, 0.0000000000000000000, -1.000000000000000000 ) ) ;
#144 = AXIS2_PLACEMENT_3D ( 'NONE', #259, #263, #159 ) ;
#145 = DIRECTION ( 'NONE',  ( 8.659560562354969800E-017, -0.7071067811865444600, 0.7071067811865505700 ) ) ;
#146 = VECTOR ( 'NONE', #311, 1000.000000000000000 ) ;
#147 = ORIENTED_EDGE ( 'NONE', *, *, #100, .F. ) ;
#148 = EDGE_CURVE ( 'NONE', #86, #200, #225, .T. ) ;
#149 = APPROVAL_ROLE ( '' ) ;
#150 = MECHANICAL_CONTEXT ( 'NONE', #385, 'mechanical' ) ;
#151 = ORIENTED_EDGE ( 'NONE', *, *, #303, .F. ) ;
#152 = CARTESIAN_POINT ( 'NONE',  ( 0.0000000000000000000, -3.000000000000000000, -4.125000000000002700 ) ) ;
#153 = AXIS2_PLACEMENT_3D ( 'NONE', #205, #372, #278 ) ;
#154 = CALENDAR_DATE ( 2021, 26, 2 ) ;
#155 = ORIENTED_EDGE ( 'NONE', *, *, #63, .F. ) ;
#156 = CARTESIAN_POINT ( 'NONE',  ( 0.0000000000000000000, -2.899999999999999000, 0.0000000000000000000 ) ) ;
#157 = CARTESIAN_POINT ( 'NONE',  ( 0.0000000000000000000, -3.000000000000000000, 0.0000000000000000000 ) ) ;
#158 = AXIS2_PLACEMENT_3D ( 'NONE', #156, #401, #194 ) ;
#159 = DIRECTION ( 'NONE',  ( 0.0000000000000000000, 0.0000000000000000000, 1.000000000000000000 ) ) ;
#160 = PERSON_AND_ORGANIZATION ( #436, #112 ) ;
#161 = VECTOR ( 'NONE', #73, 1000.000000000000000 ) ;
#162 = VERTEX_POINT ( 'NONE', #330 ) ;
#163 = CARTESIAN_POINT ( 'NONE',  ( 0.0000000000000000000, 3.000000000000000000, 0.0000000000000000000 ) ) ;
#164 = DIRECTION ( 'NONE',  ( -0.0000000000000000000, -1.000000000000000000, -0.0000000000000000000 ) ) ;
#165 = EDGE_CURVE ( 'NONE', #141, #448, #353, .T. ) ;
#166 = EDGE_LOOP ( 'NONE', ( #77, #120, #431, #126 ) ) ;
#167 = CARTESIAN_POINT ( 'NONE',  ( 0.0000000000000000000, 2.900000000000000800, -4.974999999999999600 ) ) ;
#168 = VERTEX_POINT ( 'NONE', #333 ) ;
#169 = CARTESIAN_POINT ( 'NONE',  ( 0.0000000000000000000, -3.000000000000000000, 0.0000000000000000000 ) ) ;
#170 = CARTESIAN_POINT ( 'NONE',  ( 0.0000000000000000000, -2.899999999999999000, 4.974999999999999600 ) ) ;
#171 = CARTESIAN_POINT ( 'NONE',  ( 0.0000000000000000000, 3.000000000000000000, -4.874999999999999100 ) ) ;
#172 = FACE_OUTER_BOUND ( 'NONE', #321, .T. ) ;
#173 = EDGE_LOOP ( 'NONE', ( #130, #384 ) ) ;
#174 = DIRECTION ( 'NONE',  ( 0.0000000000000000000, 0.0000000000000000000, 1.000000000000000000 ) ) ;
#175 = CARTESIAN_POINT ( 'NONE',  ( 5.051668046482832700E-016, 3.000000000000000000, -4.125000000000000000 ) ) ;
#176 = AXIS2_PLACEMENT_3D ( 'NONE', #208, #343, #102 ) ;
#177 = CARTESIAN_POINT ( 'NONE',  ( 4.929203366568097200E-016, -2.899999999999998100, 4.025000000000000400 ) ) ;
#178 = CIRCLE ( 'NONE', #318, 4.125000000000002700 ) ;
#179 = ORIENTED_EDGE ( 'NONE', *, *, #84, .T. ) ;
#180 = ORIENTED_EDGE ( 'NONE', *, *, #435, .T. ) ;
#181 = CARTESIAN_POINT ( 'NONE',  ( 0.0000000000000000000, -2.899999999999999000, 0.0000000000000000000 ) ) ;
#182 = APPROVAL_STATUS ( 'not_yet_approved' ) ;
#183 = AXIS2_PLACEMENT_3D ( 'NONE', #222, #188, #428 ) ;
#184 = PERSON_AND_ORGANIZATION_ROLE ( 'creator' ) ;
#185 = SHAPE_DEFINITION_REPRESENTATION ( #116, #114 ) ;
#186 = EDGE_LOOP ( 'NONE', ( #44, #422, #249, #23 ) ) ;
#187 = ADVANCED_FACE ( 'NONE', ( #108 ), #282, .F. ) ;
#188 = DIRECTION ( 'NONE',  ( -0.0000000000000000000, -1.000000000000000000, -0.0000000000000000000 ) ) ;
#189 = FACE_OUTER_BOUND ( 'NONE', #173, .T. ) ;
#190 = ORIENTED_EDGE ( 'NONE', *, *, #193, .F. ) ;
#191 = EDGE_LOOP ( 'NONE', ( #232, #399 ) ) ;
#192 = DIRECTION ( 'NONE',  ( 0.0000000000000000000, 0.0000000000000000000, 1.000000000000000000 ) ) ;
#193 = EDGE_CURVE ( 'NONE', #389, #354, #363, .T. ) ;
#194 = DIRECTION ( 'NONE',  ( 0.0000000000000000000, 0.0000000000000000000, 1.000000000000000000 ) ) ;
#195 = FACE_OUTER_BOUND ( 'NONE', #24, .T. ) ;
#196 = ORIENTED_EDGE ( 'NONE', *, *, #440, .T. ) ;
#197 = AXIS2_PLACEMENT_3D ( 'NONE', #181, #449, #174 ) ;
#198 = LOCAL_TIME ( 13, 46, 42.00000000000000000, #325 ) ;
#199 = FACE_OUTER_BOUND ( 'NONE', #383, .T. ) ;
#200 = VERTEX_POINT ( 'NONE', #201 ) ;
#201 = CARTESIAN_POINT ( 'NONE',  ( 6.092617825758081900E-016, 2.900000000000000800, 4.974999999999999600 ) ) ;
#202 = DIRECTION ( 'NONE',  ( 0.0000000000000000000, 0.0000000000000000000, 1.000000000000000000 ) ) ;
#203 = DIRECTION ( 'NONE',  ( -0.0000000000000000000, -1.000000000000000000, -0.0000000000000000000 ) ) ;
#204 = PERSON_AND_ORGANIZATION ( #436, #112 ) ;
#205 = CARTESIAN_POINT ( 'NONE',  ( 0.0000000000000000000, 3.000000000000000000, 0.0000000000000000000 ) ) ;
#206 = VECTOR ( 'NONE', #69, 1000.000000000000000 ) ;
#207 = ORIENTED_EDGE ( 'NONE', *, *, #82, .F. ) ;
#208 = CARTESIAN_POINT ( 'NONE',  ( 0.0000000000000000000, -2.899999999999999000, 0.0000000000000000000 ) ) ;
#209 = EDGE_CURVE ( 'NONE', #389, #162, #103, .T. ) ;
#210 =( NAMED_UNIT ( * ) SI_UNIT ( $, .STERADIAN. ) SOLID_ANGLE_UNIT ( ) );
#211 = COORDINATED_UNIVERSAL_TIME_OFFSET ( 6, 0, .BEHIND. ) ;
#212 = COORDINATED_UNIVERSAL_TIME_OFFSET ( 6, 0, .BEHIND. ) ;
#213 = LINE ( 'NONE', #371, #146 ) ;
#214 = ORIENTED_EDGE ( 'NONE', *, *, #348, .F. ) ;
#215 = AXIS2_PLACEMENT_3D ( 'NONE', #157, #58, #192 ) ;
#216 = EDGE_LOOP ( 'NONE', ( #341, #190, #113, #413 ) ) ;
#217 = ORIENTED_EDGE ( 'NONE', *, *, #115, .T. ) ;
#218 = PERSON_AND_ORGANIZATION_ROLE ( 'design_supplier' ) ;
#219 = ADVANCED_FACE ( 'NONE', ( #93 ), #264, .F. ) ;
#220 = CONICAL_SURFACE ( 'NONE', #197, 4.974999999999999600, 0.7853981633974439500 ) ;
#221 = ORIENTED_EDGE ( 'NONE', *, *, #39, .F. ) ;
#222 = CARTESIAN_POINT ( 'NONE',  ( 0.0000000000000000000, 3.000000000000000000, 0.0000000000000000000 ) ) ;
#223 = AXIS2_PLACEMENT_3D ( 'NONE', #33, #386, #38 ) ;
#224 = DIRECTION ( 'NONE',  ( -0.0000000000000000000, -1.000000000000000000, -0.0000000000000000000 ) ) ;
#225 = CIRCLE ( 'NONE', #406, 4.974999999999999600 ) ;
#226 = EDGE_LOOP ( 'NONE', ( #136, #196, #326, #221 ) ) ;
#227 = ADVANCED_FACE ( 'NONE', ( #172 ), #255, .T. ) ;
#228 = CARTESIAN_POINT ( 'NONE',  ( 0.0000000000000000000, 3.000000000000000000, 4.125000000000000000 ) ) ;
#229 = CC_DESIGN_APPROVAL ( #32, ( #355 ) ) ;
#230 = EDGE_CURVE ( 'NONE', #322, #66, #415, .T. ) ;
#231 = CALENDAR_DATE ( 2021, 26, 2 ) ;
#232 = ORIENTED_EDGE ( 'NONE', *, *, #416, .T. ) ;
#233 = DIRECTION ( 'NONE',  ( 0.0000000000000000000, 1.000000000000000000, 0.0000000000000000000 ) ) ;
#234 = DIRECTION ( 'NONE',  ( 0.0000000000000000000, 0.0000000000000000000, 1.000000000000000000 ) ) ;
#235 = AXIS2_PLACEMENT_3D ( 'NONE', #327, #97, #403 ) ;
#236 = CIRCLE ( 'NONE', #43, 4.125000000000000000 ) ;
#237 = ORIENTED_EDGE ( 'NONE', *, *, #165, .T. ) ;
#238 = CARTESIAN_POINT ( 'NONE',  ( 6.092617825758081900E-016, -2.899999999999999000, -4.974999999999999600 ) ) ;
#239 = DESIGN_CONTEXT ( 'detailed design', #387, 'design' ) ;
#240 = CARTESIAN_POINT ( 'NONE',  ( 0.0000000000000000000, -2.899999999999998100, 0.0000000000000000000 ) ) ;
#241 = DIRECTION ( 'NONE',  ( -0.0000000000000000000, -1.000000000000000000, -0.0000000000000000000 ) ) ;
#242 = PERSON_AND_ORGANIZATION ( #436, #112 ) ;
#243 = CARTESIAN_POINT ( 'NONE',  ( 6.092617825758081900E-016, 3.000000000000000000, 4.974999999999999600 ) ) ;
#244 = VERTEX_POINT ( 'NONE', #273 ) ;
#245 = CARTESIAN_POINT ( 'NONE',  ( 0.0000000000000000000, -2.899999999999998100, -4.025000000000000400 ) ) ;
#246 = EDGE_CURVE ( 'NONE', #244, #374, #119, .T. ) ;
#247 = CARTESIAN_POINT ( 'NONE',  ( 0.0000000000000000000, 0.0000000000000000000, 0.0000000000000000000 ) ) ;
#248 = APPROVAL_DATE_TIME ( #17, #88 ) ;
#249 = ORIENTED_EDGE ( 'NONE', *, *, #416, .F. ) ;
#250 = CARTESIAN_POINT ( 'NONE',  ( 0.0000000000000000000, 2.900000000000000800, 0.0000000000000000000 ) ) ;
#251 = ORIENTED_EDGE ( 'NONE', *, *, #148, .F. ) ;
#252 = CC_DESIGN_APPROVAL ( #88, ( #76 ) ) ;
#253 = CONICAL_SURFACE ( 'NONE', #25, 4.974999999999999600, 0.7853981633974439500 ) ;
#254 = CYLINDRICAL_SURFACE ( 'NONE', #286, 4.025000000000000400 ) ;
#255 = CONICAL_SURFACE ( 'NONE', #153, 4.874999999999999100, 0.7853981633974526100 ) ;
#256 = ORIENTED_EDGE ( 'NONE', *, *, #270, .F. ) ;
#257 = DIRECTION ( 'NONE',  ( 0.0000000000000000000, 0.0000000000000000000, 1.000000000000000000 ) ) ;
#258 = EDGE_CURVE ( 'NONE', #244, #389, #107, .T. ) ;
#259 = CARTESIAN_POINT ( 'NONE',  ( 0.0000000000000000000, 2.900000000000000800, 0.0000000000000000000 ) ) ;
#260 = CARTESIAN_POINT ( 'NONE',  ( 6.031385485800713100E-016, 3.000000000000000000, 4.874999999999999100 ) ) ;
#261 = DIRECTION ( 'NONE',  ( 0.0000000000000000000, 0.0000000000000000000, 1.000000000000000000 ) ) ;
#262 = ADVANCED_FACE ( 'NONE', ( #91 ), #253, .T. ) ;
#263 = DIRECTION ( 'NONE',  ( 0.0000000000000000000, 1.000000000000000000, 0.0000000000000000000 ) ) ;
#264 = CYLINDRICAL_SURFACE ( 'NONE', #128, 4.025000000000000400 ) ;
#265 = EDGE_LOOP ( 'NONE', ( #256, #60, #395, #151 ) ) ;
#266 = AXIS2_PLACEMENT_3D ( 'NONE', #418, #142, #41 ) ;
#267 = LINE ( 'NONE', #137, #80 ) ;
#268 = CIRCLE ( 'NONE', #444, 4.974999999999999600 ) ;
#269 = DIRECTION ( 'NONE',  ( 8.659560562354969800E-017, -0.7071067811865444600, 0.7071067811865505700 ) ) ;
#270 = EDGE_CURVE ( 'NONE', #294, #6, #13, .T. ) ;
#271 = CARTESIAN_POINT ( 'NONE',  ( 0.0000000000000000000, -3.000000000000000000, 0.0000000000000000000 ) ) ;
#272 = CARTESIAN_POINT ( 'NONE',  ( 0.0000000000000000000, 3.000000000000000000, 0.0000000000000000000 ) ) ;
#273 = CARTESIAN_POINT ( 'NONE',  ( 0.0000000000000000000, 2.900000000000000800, -4.025000000000000400 ) ) ;
#274 = AXIS2_PLACEMENT_3D ( 'NONE', #240, #241, #131 ) ;
#275 = DATE_AND_TIME ( #392, #111 ) ;
#276 = CIRCLE ( 'NONE', #292, 4.025000000000000400 ) ;
#277 = ORIENTED_EDGE ( 'NONE', *, *, #100, .T. ) ;
#278 = DIRECTION ( 'NONE',  ( 0.0000000000000000000, 0.0000000000000000000, -1.000000000000000000 ) ) ;
#279 = DIRECTION ( 'NONE',  ( 0.0000000000000000000, 1.000000000000000000, 0.0000000000000000000 ) ) ;
#280 = DIRECTION ( 'NONE',  ( 0.0000000000000000000, -1.000000000000000000, 0.0000000000000000000 ) ) ;
#281 = CARTESIAN_POINT ( 'NONE',  ( 0.0000000000000000000, 2.900000000000000800, 0.0000000000000000000 ) ) ;
#282 = CONICAL_SURFACE ( 'NONE', #68, 4.125000000000002700, 0.7853981633974526100 ) ;
#283 = EDGE_LOOP ( 'NONE', ( #331, #65, #180, #30 ) ) ;
#284 = ORIENTED_EDGE ( 'NONE', *, *, #258, .T. ) ;
#285 = DIRECTION ( 'NONE',  ( 1.000000000000000000, 0.0000000000000000000, 0.0000000000000000000 ) ) ;
#286 = AXIS2_PLACEMENT_3D ( 'NONE', #99, #412, #15 ) ;
#287 = EDGE_CURVE ( 'NONE', #398, #168, #378, .T. ) ;
#288 = FACE_OUTER_BOUND ( 'NONE', #265, .T. ) ;
#289 = ORIENTED_EDGE ( 'NONE', *, *, #82, .T. ) ;
#290 = APPROVAL_ROLE ( '' ) ;
#291 = PERSON_AND_ORGANIZATION ( #436, #112 ) ;
#292 = AXIS2_PLACEMENT_3D ( 'NONE', #281, #75, #319 ) ;
#293 = CIRCLE ( 'NONE', #106, 4.874999999999999100 ) ;
#294 = VERTEX_POINT ( 'NONE', #309 ) ;
#295 = CARTESIAN_POINT ( 'NONE',  ( 0.0000000000000000000, 2.900000000000000800, 0.0000000000000000000 ) ) ;
#296 = EDGE_CURVE ( 'NONE', #294, #398, #382, .T. ) ;
#297 = DIRECTION ( 'NONE',  ( -0.0000000000000000000, -1.000000000000000000, -0.0000000000000000000 ) ) ;
#298 = DATE_AND_TIME ( #118, #409 ) ;
#299 = ORIENTED_EDGE ( 'NONE', *, *, #63, .T. ) ;
#300 = CC_DESIGN_SECURITY_CLASSIFICATION ( #397, ( #76 ) ) ;
#301 = ADVANCED_FACE ( 'NONE', ( #189, #315 ), #375, .F. ) ;
#302 = DIRECTION ( 'NONE',  ( -0.0000000000000000000, -1.000000000000000000, -0.0000000000000000000 ) ) ;
#303 = EDGE_CURVE ( 'NONE', #6, #168, #357, .T. ) ;
#304 = CALENDAR_DATE ( 2021, 26, 2 ) ;
#305 = PERSON_AND_ORGANIZATION ( #436, #112 ) ;
#306 = CYLINDRICAL_SURFACE ( 'NONE', #235, 4.974999999999999600 ) ;
#307 = CLOSED_SHELL ( 'NONE', ( #57, #187, #324, #334, #219, #361, #434, #301, #89, #123, #262, #227, #50, #359 ) ) ;
#308 = CARTESIAN_POINT ( 'NONE',  ( 0.0000000000000000000, 3.000000000000000000, 0.0000000000000000000 ) ) ;
#309 = CARTESIAN_POINT ( 'NONE',  ( 6.031385485800713100E-016, -3.000000000000000000, -4.874999999999999100 ) ) ;
#310 = AXIS2_PLACEMENT_3D ( 'NONE', #271, #203, #134 ) ;
#311 = DIRECTION ( 'NONE',  ( 8.659560562354969800E-017, 0.7071067811865444600, -0.7071067811865505700 ) ) ;
#312 = VERTEX_POINT ( 'NONE', #377 ) ;
#313 = ORIENTED_EDGE ( 'NONE', *, *, #165, .F. ) ;
#314 = EDGE_CURVE ( 'NONE', #354, #312, #267, .T. ) ;
#315 = FACE_BOUND ( 'NONE', #191, .T. ) ;
#316 = VECTOR ( 'NONE', #432, 1000.000000000000000 ) ;
#317 = DIRECTION ( 'NONE',  ( 0.0000000000000000000, 0.0000000000000000000, 1.000000000000000000 ) ) ;
#318 = AXIS2_PLACEMENT_3D ( 'NONE', #35, #419, #317 ) ;
#319 = DIRECTION ( 'NONE',  ( 0.0000000000000000000, 0.0000000000000000000, 1.000000000000000000 ) ) ;
#320 = DIRECTION ( 'NONE',  ( 0.0000000000000000000, 0.0000000000000000000, 1.000000000000000000 ) ) ;
#321 = EDGE_LOOP ( 'NONE', ( #147, #340, #179, #109 ) ) ;
#322 = VERTEX_POINT ( 'NONE', #171 ) ;
#323 = PRODUCT_RELATED_PRODUCT_CATEGORY ( 'detail', '', ( #27 ) ) ;
#324 = ADVANCED_FACE ( 'NONE', ( #362 ), #71, .T. ) ;
#325 = COORDINATED_UNIVERSAL_TIME_OFFSET ( 6, 0, .BEHIND. ) ;
#326 = ORIENTED_EDGE ( 'NONE', *, *, #132, .T. ) ;
#327 = CARTESIAN_POINT ( 'NONE',  ( 0.0000000000000000000, 3.000000000000000000, 0.0000000000000000000 ) ) ;
#328 = COORDINATED_UNIVERSAL_TIME_OFFSET ( 6, 0, .BEHIND. ) ;
#329 = CARTESIAN_POINT ( 'NONE',  ( 0.0000000000000000000, -3.000000000000000000, 0.0000000000000000000 ) ) ;
#330 = CARTESIAN_POINT ( 'NONE',  ( 0.0000000000000000000, -3.000000000000000000, -4.125000000000002700 ) ) ;
#331 = ORIENTED_EDGE ( 'NONE', *, *, #246, .T. ) ;
#332 = ORIENTED_EDGE ( 'NONE', *, *, #303, .T. ) ;
#333 = CARTESIAN_POINT ( 'NONE',  ( 6.092617825758081900E-016, -2.899999999999999000, 4.974999999999999600 ) ) ;
#334 = ADVANCED_FACE ( 'NONE', ( #288 ), #220, .T. ) ;
#335 = DIRECTION ( 'NONE',  ( -0.0000000000000000000, -1.000000000000000000, -0.0000000000000000000 ) ) ;
#336 = CIRCLE ( 'NONE', #223, 4.874999999999999100 ) ;
#337 = LINE ( 'NONE', #26, #411 ) ;
#338 = AXIS2_PLACEMENT_3D ( 'NONE', #40, #279, #139 ) ;
#339 = COORDINATED_UNIVERSAL_TIME_OFFSET ( 6, 0, .BEHIND. ) ;
#340 = ORIENTED_EDGE ( 'NONE', *, *, #230, .F. ) ;
#341 = ORIENTED_EDGE ( 'NONE', *, *, #314, .F. ) ;
#342 = DIRECTION ( 'NONE',  ( 8.659560562354895900E-017, 0.7071067811865505700, -0.7071067811865444600 ) ) ;
#343 = DIRECTION ( 'NONE',  ( -0.0000000000000000000, 1.000000000000000000, -0.0000000000000000000 ) ) ;
#344 = DIRECTION ( 'NONE',  ( 0.0000000000000000000, 1.000000000000000000, 0.0000000000000000000 ) ) ;
#345 = DIRECTION ( 'NONE',  ( 0.0000000000000000000, 0.0000000000000000000, 1.000000000000000000 ) ) ;
#346 = FACE_OUTER_BOUND ( 'NONE', #226, .T. ) ;
#347 = CIRCLE ( 'NONE', #215, 4.125000000000002700 ) ;
#348 = EDGE_CURVE ( 'NONE', #66, #322, #336, .T. ) ;
#349 = CARTESIAN_POINT ( 'NONE',  ( 0.0000000000000000000, -2.899999999999999000, -4.974999999999999600 ) ) ;
#350 =( NAMED_UNIT ( * ) PLANE_ANGLE_UNIT ( ) SI_UNIT ( $, .RADIAN. ) );
#351 = CARTESIAN_POINT ( 'NONE',  ( 0.0000000000000000000, -2.899999999999998100, 0.0000000000000000000 ) ) ;
#352 = CIRCLE ( 'NONE', #34, 4.025000000000000400 ) ;
#353 = CIRCLE ( 'NONE', #183, 4.125000000000000000 ) ;
#354 = VERTEX_POINT ( 'NONE', #177 ) ;
#355 = PRODUCT_DEFINITION ( 'UNKNOWN', '', #76, #239 ) ;
#356 = APPROVAL_STATUS ( 'not_yet_approved' ) ;
#357 = LINE ( 'NONE', #170, #2 ) ;
#358 = ORIENTED_EDGE ( 'NONE', *, *, #246, .F. ) ;
#359 = ADVANCED_FACE ( 'NONE', ( #195 ), #437, .F. ) ;
#360 = AXIS2_PLACEMENT_3D ( 'NONE', #169, #344, #64 ) ;
#361 = ADVANCED_FACE ( 'NONE', ( #346 ), #140, .T. ) ;
#362 = FACE_OUTER_BOUND ( 'NONE', #379, .T. ) ;
#363 = CIRCLE ( 'NONE', #274, 4.025000000000000400 ) ;
#364 = ORIENTED_EDGE ( 'NONE', *, *, #348, .T. ) ;
#365 = CARTESIAN_POINT ( 'NONE',  ( 0.0000000000000000000, -3.000000000000000000, 4.874999999999999100 ) ) ;
#366 = CARTESIAN_POINT ( 'NONE',  ( 0.0000000000000000000, 3.000000000000000000, 0.0000000000000000000 ) ) ;
#367 = AXIS2_PLACEMENT_3D ( 'NONE', #247, #381, #285 ) ;
#368 = ORIENTED_EDGE ( 'NONE', *, *, #84, .F. ) ;
#369 = CARTESIAN_POINT ( 'NONE',  ( 0.0000000000000000000, 3.000000000000000000, -4.974999999999999600 ) ) ;
#370 = AXIS2_PLACEMENT_3D ( 'NONE', #250, #7, #345 ) ;
#371 = CARTESIAN_POINT ( 'NONE',  ( 4.929203366568097200E-016, 2.900000000000000800, -4.025000000000000400 ) ) ;
#372 = DIRECTION ( 'NONE',  ( 0.0000000000000000000, -1.000000000000000000, 0.0000000000000000000 ) ) ;
#373 = CIRCLE ( 'NONE', #158, 4.974999999999999600 ) ;
#374 = VERTEX_POINT ( 'NONE', #1 ) ;
#375 = PLANE ( 'NONE',  #360 ) ;
#376 = CC_DESIGN_PERSON_AND_ORGANIZATION_ASSIGNMENT ( #305, #10, ( #355 ) ) ;
#377 = CARTESIAN_POINT ( 'NONE',  ( 5.051668046482835700E-016, -3.000000000000000000, 4.125000000000002700 ) ) ;
#378 = CIRCLE ( 'NONE', #176, 4.974999999999999600 ) ;
#379 = EDGE_LOOP ( 'NONE', ( #214, #277, #251, #368 ) ) ;
#380 = DIRECTION ( 'NONE',  ( 0.0000000000000000000, 0.7071067811865505700, 0.7071067811865444600 ) ) ;
#381 = DIRECTION ( 'NONE',  ( 0.0000000000000000000, 0.0000000000000000000, 1.000000000000000000 ) ) ;
#382 = LINE ( 'NONE', #238, #425 ) ;
#383 = EDGE_LOOP ( 'NONE', ( #417, #95, #284, #55 ) ) ;
#384 = ORIENTED_EDGE ( 'NONE', *, *, #270, .T. ) ;
#385 = APPLICATION_CONTEXT ( 'configuration controlled 3d designs of mechanical parts and assemblies' ) ;
#386 = DIRECTION ( 'NONE',  ( 0.0000000000000000000, 1.000000000000000000, 0.0000000000000000000 ) ) ;
#387 = APPLICATION_CONTEXT ( 'configuration controlled 3d designs of mechanical parts and assemblies' ) ;
#388 = APPROVAL_ROLE ( '' ) ;
#389 = VERTEX_POINT ( 'NONE', #245 ) ;
#390 = SECURITY_CLASSIFICATION_LEVEL ( 'unclassified' ) ;
#391 = EDGE_CURVE ( 'NONE', #374, #244, #276, .T. ) ;
#392 = CALENDAR_DATE ( 2021, 26, 2 ) ;
#393 = APPROVAL_DATE_TIME ( #404, #32 ) ;
#394 = ORIENTED_EDGE ( 'NONE', *, *, #391, .F. ) ;
#395 = ORIENTED_EDGE ( 'NONE', *, *, #132, .F. ) ;
#396 = DIRECTION ( 'NONE',  ( 0.0000000000000000000, 0.0000000000000000000, 1.000000000000000000 ) ) ;
#397 = SECURITY_CLASSIFICATION ( '', '', #390 ) ;
#398 = VERTEX_POINT ( 'NONE', #349 ) ;
#399 = ORIENTED_EDGE ( 'NONE', *, *, #61, .T. ) ;
#400 = CARTESIAN_POINT ( 'NONE',  ( 0.0000000000000000000, 3.000000000000000000, -4.874999999999999100 ) ) ;
#401 = DIRECTION ( 'NONE',  ( -0.0000000000000000000, 1.000000000000000000, -0.0000000000000000000 ) ) ;
#402 = MANIFOLD_SOLID_BREP ( 'Chamfer1', #307 ) ;
#403 = DIRECTION ( 'NONE',  ( 0.0000000000000000000, 0.0000000000000000000, -1.000000000000000000 ) ) ;
#404 = DATE_AND_TIME ( #231, #198 ) ;
#405 = LINE ( 'NONE', #127, #4 ) ;
#406 = AXIS2_PLACEMENT_3D ( 'NONE', #295, #49, #261 ) ;
#407 = DIRECTION ( 'NONE',  ( 0.0000000000000000000, 0.0000000000000000000, -1.000000000000000000 ) ) ;
#408 = CARTESIAN_POINT ( 'NONE',  ( 4.929203366568097200E-016, 3.000000000000000000, 4.025000000000000400 ) ) ;
#409 = LOCAL_TIME ( 13, 46, 42.00000000000000000, #212 ) ;
#410 = CARTESIAN_POINT ( 'NONE',  ( 0.0000000000000000000, 2.900000000000000800, 0.0000000000000000000 ) ) ;
#411 = VECTOR ( 'NONE', #269, 1000.000000000000000 ) ;
#412 = DIRECTION ( 'NONE',  ( -0.0000000000000000000, -1.000000000000000000, -0.0000000000000000000 ) ) ;
#413 = ORIENTED_EDGE ( 'NONE', *, *, #61, .F. ) ;
#414 = APPROVAL ( #45, 'UNSPECIFIED' ) ;
#415 = CIRCLE ( 'NONE', #52, 4.874999999999999100 ) ;
#416 = EDGE_CURVE ( 'NONE', #162, #312, #178, .T. ) ;
#417 = ORIENTED_EDGE ( 'NONE', *, *, #92, .F. ) ;
#418 = CARTESIAN_POINT ( 'NONE',  ( 0.0000000000000000000, 3.000000000000000000, 0.0000000000000000000 ) ) ;
#419 = DIRECTION ( 'NONE',  ( 0.0000000000000000000, 1.000000000000000000, 0.0000000000000000000 ) ) ;
#420 = DIRECTION ( 'NONE',  ( -0.0000000000000000000, -1.000000000000000000, -0.0000000000000000000 ) ) ;
#421 = FACE_OUTER_BOUND ( 'NONE', #121, .T. ) ;
#422 = ORIENTED_EDGE ( 'NONE', *, *, #314, .T. ) ;
#423 = CC_DESIGN_DATE_AND_TIME_ASSIGNMENT ( #70, #8, ( #397 ) ) ;
#424 = PERSON_AND_ORGANIZATION_ROLE ( 'classification_officer' ) ;
#425 = VECTOR ( 'NONE', #342, 1000.000000000000000 ) ;
#426 = VECTOR ( 'NONE', #62, 1000.000000000000000 ) ;
#427 = PERSON_AND_ORGANIZATION_ROLE ( 'design_owner' ) ;
#428 = DIRECTION ( 'NONE',  ( 0.0000000000000000000, 0.0000000000000000000, 1.000000000000000000 ) ) ;
#429 = CC_DESIGN_DATE_AND_TIME_ASSIGNMENT ( #298, #117, ( #355 ) ) ;
#430 = APPROVAL_PERSON_ORGANIZATION ( #242, #88, #388 ) ;
#431 = ORIENTED_EDGE ( 'NONE', *, *, #39, .T. ) ;
#432 = DIRECTION ( 'NONE',  ( 0.0000000000000000000, -0.7071067811865444600, -0.7071067811865505700 ) ) ;
#433 = DIRECTION ( 'NONE',  ( 0.0000000000000000000, -1.000000000000000000, 0.0000000000000000000 ) ) ;
#434 = ADVANCED_FACE ( 'NONE', ( #441, #46 ), #74, .T. ) ;
#435 = EDGE_CURVE ( 'NONE', #354, #389, #352, .T. ) ;
#436 = PERSON ( 'UNSPECIFIED', 'UNSPECIFIED', 'UNSPECIFIED', ('UNSPECIFIED'), ('UNSPECIFIED'), ('UNSPECIFIED') ) ;
#437 = CONICAL_SURFACE ( 'NONE', #370, 4.025000000000000400, 0.7853981633974526100 ) ;
#438 = CONICAL_SURFACE ( 'NONE', #144, 4.025000000000000400, 0.7853981633974526100 ) ;
#439 = AXIS2_PLACEMENT_3D ( 'NONE', #410, #233, #234 ) ;
#440 = EDGE_CURVE ( 'NONE', #200, #168, #83, .T. ) ;
#441 = FACE_OUTER_BOUND ( 'NONE', #125, .T. ) ;
#442 = LINE ( 'NONE', #408, #426 ) ;
#443 = ORIENTED_EDGE ( 'NONE', *, *, #230, .T. ) ;
#444 = AXIS2_PLACEMENT_3D ( 'NONE', #12, #433, #396 ) ;
#445 = DIRECTION ( 'NONE',  ( -0.0000000000000000000, -1.000000000000000000, -0.0000000000000000000 ) ) ;
#446 = APPROVAL_DATE_TIME ( #275, #414 ) ;
#447 = APPROVAL_PERSON_ORGANIZATION ( #291, #32, #149 ) ;
#448 = VERTEX_POINT ( 'NONE', #175 ) ;
#449 = DIRECTION ( 'NONE',  ( -0.0000000000000000000, 1.000000000000000000, -0.0000000000000000000 ) ) ;
ENDSEC;
END-ISO-10303-21;
