ISO-10303-21;
HEADER;
FILE_DESCRIPTION (( 'STEP AP203' ),
    '1' );
FILE_NAME ('1522-0010-0020.STEP',
    '2021-02-26T19:45:31',
    ( '' ),
    ( '' ),
    'SwSTEP 2.0',
    'SolidWorks 2016',
    '' );
FILE_SCHEMA (( 'CONFIG_CONTROL_DESIGN' ));
ENDSEC;

DATA;
#1 = CIRCLE ( 'NONE', #120, 4.974999999999999600 ) ;
#2 = ORIENTED_EDGE ( 'NONE', *, *, #256, .F. ) ;
#3 = CARTESIAN_POINT ( 'NONE',  ( 0.0000000000000000000, 1.000000000000000000, 0.0000000000000000000 ) ) ;
#4 = COORDINATED_UNIVERSAL_TIME_OFFSET ( 6, 0, .BEHIND. ) ;
#5 = ORIENTED_EDGE ( 'NONE', *, *, #126, .T. ) ;
#6 = ORIENTED_EDGE ( 'NONE', *, *, #126, .F. ) ;
#7 = CARTESIAN_POINT ( 'NONE',  ( 6.092617825758081900E-016, -0.8999999999999998000, 4.974999999999999600 ) ) ;
#8 = AXIS2_PLACEMENT_3D ( 'NONE', #334, #110, #433 ) ;
#9 = ORIENTED_EDGE ( 'NONE', *, *, #341, .T. ) ;
#10 = DIRECTION ( 'NONE',  ( 0.0000000000000000000, -0.7071067811865443500, -0.7071067811865506800 ) ) ;
#11 = ADVANCED_BREP_SHAPE_REPRESENTATION ( '1522-0010-0020', ( #340, #146 ), #208 ) ;
#12 = COORDINATED_UNIVERSAL_TIME_OFFSET ( 6, 0, .BEHIND. ) ;
#13 = EDGE_LOOP ( 'NONE', ( #381, #5 ) ) ;
#14 = EDGE_CURVE ( 'NONE', #378, #277, #405, .T. ) ;
#15 = DIRECTION ( 'NONE',  ( 0.0000000000000000000, 0.0000000000000000000, 1.000000000000000000 ) ) ;
#16 = ORIENTED_EDGE ( 'NONE', *, *, #249, .F. ) ;
#17 = APPLICATION_PROTOCOL_DEFINITION ( 'international standard', 'config_control_design', 1994, #343 ) ;
#18 = CYLINDRICAL_SURFACE ( 'NONE', #348, 4.025000000000000400 ) ;
#19 = ORIENTED_EDGE ( 'NONE', *, *, #282, .T. ) ;
#20 = EDGE_CURVE ( 'NONE', #30, #428, #40, .T. ) ;
#21 = DIRECTION ( 'NONE',  ( 0.0000000000000000000, 0.0000000000000000000, 1.000000000000000000 ) ) ;
#22 = APPLICATION_CONTEXT ( 'configuration controlled 3d designs of mechanical parts and assemblies' ) ;
#23 = LOCAL_TIME ( 13, 45, 31.00000000000000000, #327 ) ;
#24 = VERTEX_POINT ( 'NONE', #426 ) ;
#25 = ORIENTED_EDGE ( 'NONE', *, *, #73, .F. ) ;
#26 = CONICAL_SURFACE ( 'NONE', #8, 4.025000000000000400, 0.7853981633974526100 ) ;
#27 = EDGE_LOOP ( 'NONE', ( #322, #284, #445, #225 ) ) ;
#28 = AXIS2_PLACEMENT_3D ( 'NONE', #188, #192, #333 ) ;
#29 = CIRCLE ( 'NONE', #104, 4.025000000000000400 ) ;
#30 = VERTEX_POINT ( 'NONE', #264 ) ;
#31 = EDGE_CURVE ( 'NONE', #132, #243, #271, .T. ) ;
#32 = DIRECTION ( 'NONE',  ( 0.0000000000000000000, 0.0000000000000000000, 1.000000000000000000 ) ) ;
#33 = LOCAL_TIME ( 13, 45, 31.00000000000000000, #359 ) ;
#34 = CARTESIAN_POINT ( 'NONE',  ( 0.0000000000000000000, -0.8999999999999998000, 0.0000000000000000000 ) ) ;
#35 = LINE ( 'NONE', #399, #404 ) ;
#36 = FACE_BOUND ( 'NONE', #13, .T. ) ;
#37 = EDGE_CURVE ( 'NONE', #54, #366, #339, .T. ) ;
#38 = DIRECTION ( 'NONE',  ( 0.0000000000000000000, -1.000000000000000000, 0.0000000000000000000 ) ) ;
#39 = DIRECTION ( 'NONE',  ( 0.0000000000000000000, 0.0000000000000000000, 1.000000000000000000 ) ) ;
#40 = CIRCLE ( 'NONE', #304, 4.025000000000000400 ) ;
#41 = DIRECTION ( 'NONE',  ( 0.0000000000000000000, 0.0000000000000000000, -1.000000000000000000 ) ) ;
#42 = ORIENTED_EDGE ( 'NONE', *, *, #318, .F. ) ;
#43 = CARTESIAN_POINT ( 'NONE',  ( 0.0000000000000000000, 0.8999999999999989100, 0.0000000000000000000 ) ) ;
#44 = ORIENTED_EDGE ( 'NONE', *, *, #273, .F. ) ;
#45 = DIRECTION ( 'NONE',  ( 0.0000000000000000000, 0.0000000000000000000, 1.000000000000000000 ) ) ;
#46 = LINE ( 'NONE', #214, #275 ) ;
#47 = CARTESIAN_POINT ( 'NONE',  ( 0.0000000000000000000, 1.000000000000000000, 4.124999999999998200 ) ) ;
#48 = PERSON_AND_ORGANIZATION_ROLE ( 'design_owner' ) ;
#49 = CC_DESIGN_APPROVAL ( #416, ( #307 ) ) ;
#50 = APPROVAL_ROLE ( '' ) ;
#51 = CARTESIAN_POINT ( 'NONE',  ( 6.031385485800713100E-016, -1.000000000000000000, -4.874999999999999100 ) ) ;
#52 = COORDINATED_UNIVERSAL_TIME_OFFSET ( 6, 0, .BEHIND. ) ;
#53 = VECTOR ( 'NONE', #112, 1000.000000000000000 ) ;
#54 = VERTEX_POINT ( 'NONE', #51 ) ;
#55 = EDGE_CURVE ( 'NONE', #111, #253, #392, .T. ) ;
#56 = ADVANCED_FACE ( 'NONE', ( #183 ), #58, .F. ) ;
#57 = EDGE_CURVE ( 'NONE', #111, #382, #306, .T. ) ;
#58 = CYLINDRICAL_SURFACE ( 'NONE', #237, 4.025000000000000400 ) ;
#59 = AXIS2_PLACEMENT_3D ( 'NONE', #423, #217, #68 ) ;
#60 = DIRECTION ( 'NONE',  ( 0.0000000000000000000, 0.0000000000000000000, -1.000000000000000000 ) ) ;
#61 = CIRCLE ( 'NONE', #59, 4.124999999999999100 ) ;
#62 = ORIENTED_EDGE ( 'NONE', *, *, #130, .F. ) ;
#63 = CC_DESIGN_DATE_AND_TIME_ASSIGNMENT ( #420, #88, ( #272 ) ) ;
#64 = CONICAL_SURFACE ( 'NONE', #354, 4.124999999999999100, 0.7853981633974482800 ) ;
#65 = CARTESIAN_POINT ( 'NONE',  ( 0.0000000000000000000, 1.000000000000000000, 0.0000000000000000000 ) ) ;
#66 = FACE_OUTER_BOUND ( 'NONE', #27, .T. ) ;
#67 = DIRECTION ( 'NONE',  ( 0.0000000000000000000, 0.0000000000000000000, 1.000000000000000000 ) ) ;
#68 = DIRECTION ( 'NONE',  ( 0.0000000000000000000, 0.0000000000000000000, 1.000000000000000000 ) ) ;
#69 = LINE ( 'NONE', #78, #316 ) ;
#70 = EDGE_LOOP ( 'NONE', ( #178, #287, #9, #241 ) ) ;
#71 = CARTESIAN_POINT ( 'NONE',  ( 0.0000000000000000000, 0.9000000000000023500, 0.0000000000000000000 ) ) ;
#72 = ORIENTED_EDGE ( 'NONE', *, *, #446, .F. ) ;
#73 = EDGE_CURVE ( 'NONE', #168, #449, #1, .T. ) ;
#74 = EDGE_CURVE ( 'NONE', #243, #132, #385, .T. ) ;
#75 = DATE_AND_TIME ( #280, #371 ) ;
#76 = DIRECTION ( 'NONE',  ( 0.0000000000000000000, 0.0000000000000000000, 1.000000000000000000 ) ) ;
#77 = EDGE_LOOP ( 'NONE', ( #263, #92 ) ) ;
#78 = CARTESIAN_POINT ( 'NONE',  ( 5.970153145843343400E-016, 1.000000000000000000, 4.874999999999997300 ) ) ;
#79 = CARTESIAN_POINT ( 'NONE',  ( 0.0000000000000000000, -1.000000000000000000, 0.0000000000000000000 ) ) ;
#80 = AXIS2_PLACEMENT_3D ( 'NONE', #71, #421, #138 ) ;
#81 = MECHANICAL_CONTEXT ( 'NONE', #22, 'mechanical' ) ;
#82 = CONICAL_SURFACE ( 'NONE', #141, 4.974999999999999600, 0.7853981633974482800 ) ;
#83 = EDGE_CURVE ( 'NONE', #197, #168, #167, .T. ) ;
#84 = EDGE_LOOP ( 'NONE', ( #357, #213, #317, #313 ) ) ;
#85 = CARTESIAN_POINT ( 'NONE',  ( 0.0000000000000000000, -1.000000000000000000, 0.0000000000000000000 ) ) ;
#86 = ADVANCED_FACE ( 'NONE', ( #218 ), #82, .T. ) ;
#87 = CARTESIAN_POINT ( 'NONE',  ( 0.0000000000000000000, 0.9000000000000023500, 0.0000000000000000000 ) ) ;
#88 = DATE_TIME_ROLE ( 'classification_date' ) ;
#89 = ADVANCED_FACE ( 'NONE', ( #160, #137 ), #184, .T. ) ;
#90 = PERSON_AND_ORGANIZATION ( #199, #212 ) ;
#91 = APPROVAL_PERSON_ORGANIZATION ( #187, #97, #50 ) ;
#92 = ORIENTED_EDGE ( 'NONE', *, *, #31, .T. ) ;
#93 = AXIS2_PLACEMENT_3D ( 'NONE', #107, #297, #76 ) ;
#94 = EDGE_CURVE ( 'NONE', #428, #253, #46, .T. ) ;
#95 = FACE_OUTER_BOUND ( 'NONE', #173, .T. ) ;
#96 = ORIENTED_EDGE ( 'NONE', *, *, #139, .F. ) ;
#97 = APPROVAL ( #278, 'UNSPECIFIED' ) ;
#98 = EDGE_CURVE ( 'NONE', #197, #24, #170, .T. ) ;
#99 = LINE ( 'NONE', #147, #216 ) ;
#100 = ORIENTED_EDGE ( 'NONE', *, *, #37, .F. ) ;
#101 = ORIENTED_EDGE ( 'NONE', *, *, #31, .F. ) ;
#102 = CARTESIAN_POINT ( 'NONE',  ( 0.0000000000000000000, -1.000000000000000000, 0.0000000000000000000 ) ) ;
#103 = DIRECTION ( 'NONE',  ( -0.0000000000000000000, -1.000000000000000000, -0.0000000000000000000 ) ) ;
#104 = AXIS2_PLACEMENT_3D ( 'NONE', #362, #394, #290 ) ;
#105 = CARTESIAN_POINT ( 'NONE',  ( 0.0000000000000000000, -0.8999999999999998000, 0.0000000000000000000 ) ) ;
#106 = DIRECTION ( 'NONE',  ( -0.0000000000000000000, 1.000000000000000000, -0.0000000000000000000 ) ) ;
#107 = CARTESIAN_POINT ( 'NONE',  ( 0.0000000000000000000, -1.000000000000000000, 0.0000000000000000000 ) ) ;
#108 = APPROVAL_PERSON_ORGANIZATION ( #336, #416, #447 ) ;
#109 = ORIENTED_EDGE ( 'NONE', *, *, #193, .T. ) ;
#110 = DIRECTION ( 'NONE',  ( 0.0000000000000000000, 1.000000000000000000, 0.0000000000000000000 ) ) ;
#111 = VERTEX_POINT ( 'NONE', #324 ) ;
#112 = DIRECTION ( 'NONE',  ( -0.0000000000000000000, -1.000000000000000000, -0.0000000000000000000 ) ) ;
#113 = CC_DESIGN_DATE_AND_TIME_ASSIGNMENT ( #285, #406, ( #307 ) ) ;
#114 = CARTESIAN_POINT ( 'NONE',  ( 0.0000000000000000000, -0.8999999999999998000, 4.974999999999999600 ) ) ;
#115 = DIRECTION ( 'NONE',  ( 0.0000000000000000000, 0.0000000000000000000, 1.000000000000000000 ) ) ;
#116 = PERSON_AND_ORGANIZATION_ROLE ( 'classification_officer' ) ;
#117 = CIRCLE ( 'NONE', #321, 4.025000000000000400 ) ;
#118 = EDGE_LOOP ( 'NONE', ( #228, #365 ) ) ;
#119 = ADVANCED_FACE ( 'NONE', ( #418 ), #364, .F. ) ;
#120 = AXIS2_PLACEMENT_3D ( 'NONE', #105, #106, #291 ) ;
#121 = DIRECTION ( 'NONE',  ( 0.0000000000000000000, 0.0000000000000000000, 1.000000000000000000 ) ) ;
#122 = VECTOR ( 'NONE', #288, 1000.000000000000100 ) ;
#123 = AXIS2_PLACEMENT_3D ( 'NONE', #163, #133, #171 ) ;
#124 = ADVANCED_FACE ( 'NONE', ( #66 ), #18, .F. ) ;
#125 = ORIENTED_EDGE ( 'NONE', *, *, #177, .T. ) ;
#126 = EDGE_CURVE ( 'NONE', #220, #382, #61, .T. ) ;
#127 = FACE_OUTER_BOUND ( 'NONE', #70, .T. ) ;
#128 = AXIS2_PLACEMENT_3D ( 'NONE', #145, #185, #438 ) ;
#129 = DIRECTION ( 'NONE',  ( -0.0000000000000000000, -1.000000000000000000, -0.0000000000000000000 ) ) ;
#130 = EDGE_CURVE ( 'NONE', #449, #168, #344, .T. ) ;
#131 = CONICAL_SURFACE ( 'NONE', #123, 4.874999999999997300, 0.7853981633974528300 ) ;
#132 = VERTEX_POINT ( 'NONE', #295 ) ;
#133 = DIRECTION ( 'NONE',  ( 0.0000000000000000000, -1.000000000000000000, 0.0000000000000000000 ) ) ;
#134 = UNCERTAINTY_MEASURE_WITH_UNIT (LENGTH_MEASURE( 1.000000000000000100E-005 ), #398, 'distance_accuracy_value', 'NONE');
#135 = CALENDAR_DATE ( 2021, 26, 2 ) ;
#136 = CARTESIAN_POINT ( 'NONE',  ( 0.0000000000000000000, 1.000000000000000000, 0.0000000000000000000 ) ) ;
#137 = FACE_BOUND ( 'NONE', #118, .T. ) ;
#138 = DIRECTION ( 'NONE',  ( 0.0000000000000000000, 0.0000000000000000000, 1.000000000000000000 ) ) ;
#139 = EDGE_CURVE ( 'NONE', #428, #30, #29, .T. ) ;
#140 = CARTESIAN_POINT ( 'NONE',  ( 0.0000000000000000000, -0.8999999999999998000, 0.0000000000000000000 ) ) ;
#141 = AXIS2_PLACEMENT_3D ( 'NONE', #140, #222, #32 ) ;
#142 = FACE_OUTER_BOUND ( 'NONE', #153, .T. ) ;
#143 = DIRECTION ( 'NONE',  ( 8.659560562354932900E-017, -0.7071067811865474600, 0.7071067811865474600 ) ) ;
#144 = ORIENTED_EDGE ( 'NONE', *, *, #98, .T. ) ;
#145 = CARTESIAN_POINT ( 'NONE',  ( 0.0000000000000000000, -1.000000000000000000, 0.0000000000000000000 ) ) ;
#146 = AXIS2_PLACEMENT_3D ( 'NONE', #400, #21, #242 ) ;
#147 = CARTESIAN_POINT ( 'NONE',  ( 6.092617825758081900E-016, -0.8999999999999998000, -4.974999999999999600 ) ) ;
#148 = ADVANCED_FACE ( 'NONE', ( #331 ), #247, .F. ) ;
#149 = EDGE_CURVE ( 'NONE', #132, #197, #69, .T. ) ;
#150 = CARTESIAN_POINT ( 'NONE',  ( 0.0000000000000000000, 1.000000000000000000, 0.0000000000000000000 ) ) ;
#151 = DIRECTION ( 'NONE',  ( 0.0000000000000000000, 0.0000000000000000000, 1.000000000000000000 ) ) ;
#152 = LINE ( 'NONE', #224, #413 ) ;
#153 = EDGE_LOOP ( 'NONE', ( #16, #96, #259, #345 ) ) ;
#154 = CARTESIAN_POINT ( 'NONE',  ( 0.0000000000000000000, -1.000000000000000000, 4.874999999999999100 ) ) ;
#155 = PRODUCT_DEFINITION_SHAPE ( 'NONE', 'NONE',  #307 ) ;
#156 = AXIS2_PLACEMENT_3D ( 'NONE', #150, #296, #45 ) ;
#157 = EDGE_CURVE ( 'NONE', #382, #220, #443, .T. ) ;
#158 = PERSON_AND_ORGANIZATION ( #199, #212 ) ;
#159 = PERSON_AND_ORGANIZATION_ROLE ( 'creator' ) ;
#160 = FACE_OUTER_BOUND ( 'NONE', #77, .T. ) ;
#161 = ORIENTED_EDGE ( 'NONE', *, *, #282, .F. ) ;
#162 = APPLICATION_PROTOCOL_DEFINITION ( 'international standard', 'config_control_design', 1994, #22 ) ;
#163 = CARTESIAN_POINT ( 'NONE',  ( 0.0000000000000000000, 1.000000000000000000, 0.0000000000000000000 ) ) ;
#164 = DIRECTION ( 'NONE',  ( -0.0000000000000000000, -1.000000000000000000, -0.0000000000000000000 ) ) ;
#165 = PERSON_AND_ORGANIZATION ( #199, #212 ) ;
#166 = AXIS2_PLACEMENT_3D ( 'NONE', #43, #373, #15 ) ;
#167 = LINE ( 'NONE', #387, #311 ) ;
#168 = VERTEX_POINT ( 'NONE', #7 ) ;
#169 = EDGE_CURVE ( 'NONE', #277, #378, #356, .T. ) ;
#170 = CIRCLE ( 'NONE', #260, 4.974999999999999600 ) ;
#171 = DIRECTION ( 'NONE',  ( 0.0000000000000000000, 0.0000000000000000000, -1.000000000000000000 ) ) ;
#172 = AXIS2_PLACEMENT_3D ( 'NONE', #419, #395, #425 ) ;
#173 = EDGE_LOOP ( 'NONE', ( #72, #2, #389, #62 ) ) ;
#174 = CC_DESIGN_PERSON_AND_ORGANIZATION_ASSIGNMENT ( #246, #194, ( #223 ) ) ;
#175 = APPROVAL_DATE_TIME ( #417, #337 ) ;
#176 = ORIENTED_EDGE ( 'NONE', *, *, #177, .F. ) ;
#177 = EDGE_CURVE ( 'NONE', #253, #111, #117, .T. ) ;
#178 = ORIENTED_EDGE ( 'NONE', *, *, #149, .F. ) ;
#179 = DIRECTION ( 'NONE',  ( 0.0000000000000000000, 0.0000000000000000000, -1.000000000000000000 ) ) ;
#180 = DIRECTION ( 'NONE',  ( -0.0000000000000000000, -1.000000000000000000, -0.0000000000000000000 ) ) ;
#181 = AXIS2_PLACEMENT_3D ( 'NONE', #431, #338, #151 ) ;
#182 = DIRECTION ( 'NONE',  ( 0.0000000000000000000, 0.0000000000000000000, 1.000000000000000000 ) ) ;
#183 = FACE_OUTER_BOUND ( 'NONE', #205, .T. ) ;
#184 = PLANE ( 'NONE',  #172 ) ;
#185 = DIRECTION ( 'NONE',  ( 0.0000000000000000000, 1.000000000000000000, 0.0000000000000000000 ) ) ;
#186 = CARTESIAN_POINT ( 'NONE',  ( 0.0000000000000000000, -1.000000000000000000, -4.124999999999999100 ) ) ;
#187 = PERSON_AND_ORGANIZATION ( #199, #212 ) ;
#188 = CARTESIAN_POINT ( 'NONE',  ( 0.0000000000000000000, 1.000000000000000000, 0.0000000000000000000 ) ) ;
#189 = ORIENTED_EDGE ( 'NONE', *, *, #73, .T. ) ;
#190 = ORIENTED_EDGE ( 'NONE', *, *, #83, .T. ) ;
#191 =( NAMED_UNIT ( * ) SI_UNIT ( $, .STERADIAN. ) SOLID_ANGLE_UNIT ( ) );
#192 = DIRECTION ( 'NONE',  ( 0.0000000000000000000, -1.000000000000000000, 0.0000000000000000000 ) ) ;
#193 = EDGE_CURVE ( 'NONE', #24, #197, #435, .T. ) ;
#194 = PERSON_AND_ORGANIZATION_ROLE ( 'design_supplier' ) ;
#195 = DIRECTION ( 'NONE',  ( 0.0000000000000000000, 0.0000000000000000000, 1.000000000000000000 ) ) ;
#196 = CYLINDRICAL_SURFACE ( 'NONE', #376, 4.974999999999999600 ) ;
#197 = VERTEX_POINT ( 'NONE', #226 ) ;
#198 = ADVANCED_FACE ( 'NONE', ( #142 ), #26, .F. ) ;
#199 = PERSON ( 'UNSPECIFIED', 'UNSPECIFIED', 'UNSPECIFIED', ('UNSPECIFIED'), ('UNSPECIFIED'), ('UNSPECIFIED') ) ;
#200 = AXIS2_PLACEMENT_3D ( 'NONE', #102, #103, #179 ) ;
#201 = ADVANCED_FACE ( 'NONE', ( #262 ), #240, .T. ) ;
#202 = CC_DESIGN_APPROVAL ( #337, ( #272 ) ) ;
#203 = PERSON_AND_ORGANIZATION_ROLE ( 'creator' ) ;
#204 = PERSON_AND_ORGANIZATION ( #199, #212 ) ;
#205 = EDGE_LOOP ( 'NONE', ( #386, #361, #125, #44 ) ) ;
#206 = ORIENTED_EDGE ( 'NONE', *, *, #57, .F. ) ;
#207 = DIRECTION ( 'NONE',  ( -0.0000000000000000000, -1.000000000000000000, -0.0000000000000000000 ) ) ;
#208 =( GEOMETRIC_REPRESENTATION_CONTEXT ( 3 ) GLOBAL_UNCERTAINTY_ASSIGNED_CONTEXT ( ( #134 ) ) GLOBAL_UNIT_ASSIGNED_CONTEXT ( ( #398, #374, #191 ) ) REPRESENTATION_CONTEXT ( 'NONE', 'WORKASPACE' ) );
#209 = FACE_OUTER_BOUND ( 'NONE', #372, .T. ) ;
#210 = ORIENTED_EDGE ( 'NONE', *, *, #57, .T. ) ;
#211 = DIRECTION ( 'NONE',  ( 8.659560562354971100E-017, 0.7071067811865444600, -0.7071067811865505700 ) ) ;
#212 = ORGANIZATION ( 'UNSPECIFIED', 'UNSPECIFIED', '' ) ;
#213 = ORIENTED_EDGE ( 'NONE', *, *, #249, .T. ) ;
#214 = CARTESIAN_POINT ( 'NONE',  ( 4.929203366568097200E-016, 1.000000000000000000, 4.025000000000000400 ) ) ;
#215 = AXIS2_PLACEMENT_3D ( 'NONE', #434, #229, #268 ) ;
#216 = VECTOR ( 'NONE', #269, 1000.000000000000100 ) ;
#217 = DIRECTION ( 'NONE',  ( 0.0000000000000000000, 1.000000000000000000, 0.0000000000000000000 ) ) ;
#218 = FACE_OUTER_BOUND ( 'NONE', #430, .T. ) ;
#219 = AXIS2_PLACEMENT_3D ( 'NONE', #85, #312, #347 ) ;
#220 = VERTEX_POINT ( 'NONE', #349 ) ;
#221 = DIRECTION ( 'NONE',  ( 0.0000000000000000000, 0.0000000000000000000, -1.000000000000000000 ) ) ;
#222 = DIRECTION ( 'NONE',  ( -0.0000000000000000000, 1.000000000000000000, -0.0000000000000000000 ) ) ;
#223 = PRODUCT_DEFINITION_FORMATION_WITH_SPECIFIED_SOURCE ( 'ANY', '', #230, .NOT_KNOWN. ) ;
#224 = CARTESIAN_POINT ( 'NONE',  ( 0.0000000000000000000, 1.000000000000000000, -4.974999999999999600 ) ) ;
#225 = ORIENTED_EDGE ( 'NONE', *, *, #55, .T. ) ;
#226 = CARTESIAN_POINT ( 'NONE',  ( 6.092617825758081900E-016, 0.8999999999999989100, 4.974999999999999600 ) ) ;
#227 = CC_DESIGN_SECURITY_CLASSIFICATION ( #272, ( #223 ) ) ;
#228 = ORIENTED_EDGE ( 'NONE', *, *, #14, .T. ) ;
#229 = DIRECTION ( 'NONE',  ( 0.0000000000000000000, 1.000000000000000000, 0.0000000000000000000 ) ) ;
#230 = PRODUCT ( '1522-0010-0020', '1522-0010-0020', '', ( #81 ) ) ;
#231 = EDGE_CURVE ( 'NONE', #428, #378, #351, .T. ) ;
#232 = ADVANCED_FACE ( 'NONE', ( #209 ), #131, .T. ) ;
#233 = APPROVAL_DATE_TIME ( #298, #416 ) ;
#234 = CARTESIAN_POINT ( 'NONE',  ( 5.051668046482830800E-016, 1.000000000000000000, -4.124999999999998200 ) ) ;
#235 = FACE_OUTER_BOUND ( 'NONE', #346, .T. ) ;
#236 = ORIENTED_EDGE ( 'NONE', *, *, #83, .F. ) ;
#237 = AXIS2_PLACEMENT_3D ( 'NONE', #314, #164, #415 ) ;
#238 = APPROVAL_STATUS ( 'not_yet_approved' ) ;
#239 = ADVANCED_FACE ( 'NONE', ( #235 ), #196, .T. ) ;
#240 = CYLINDRICAL_SURFACE ( 'NONE', #411, 4.974999999999999600 ) ;
#241 = ORIENTED_EDGE ( 'NONE', *, *, #98, .F. ) ;
#242 = DIRECTION ( 'NONE',  ( 1.000000000000000000, 0.0000000000000000000, 0.0000000000000000000 ) ) ;
#243 = VERTEX_POINT ( 'NONE', #326 ) ;
#244 = SECURITY_CLASSIFICATION_LEVEL ( 'unclassified' ) ;
#245 = CC_DESIGN_PERSON_AND_ORGANIZATION_ASSIGNMENT ( #158, #203, ( #223 ) ) ;
#246 = PERSON_AND_ORGANIZATION ( #199, #212 ) ;
#247 = CONICAL_SURFACE ( 'NONE', #80, 4.025000000000000400, 0.7853981633974526100 ) ;
#248 = CARTESIAN_POINT ( 'NONE',  ( 0.0000000000000000000, -0.9000000000000005800, 0.0000000000000000000 ) ) ;
#249 = EDGE_CURVE ( 'NONE', #30, #277, #377, .T. ) ;
#250 = PERSON_AND_ORGANIZATION ( #199, #212 ) ;
#251 = CC_DESIGN_APPROVAL ( #97, ( #223 ) ) ;
#252 = FACE_OUTER_BOUND ( 'NONE', #414, .T. ) ;
#253 = VERTEX_POINT ( 'NONE', #305 ) ;
#254 = DIRECTION ( 'NONE',  ( 0.0000000000000000000, 0.0000000000000000000, -1.000000000000000000 ) ) ;
#255 = DIRECTION ( 'NONE',  ( -0.0000000000000000000, -1.000000000000000000, -0.0000000000000000000 ) ) ;
#256 = EDGE_CURVE ( 'NONE', #366, #54, #292, .T. ) ;
#257 = LINE ( 'NONE', #368, #442 ) ;
#258 = VECTOR ( 'NONE', #319, 1000.000000000000000 ) ;
#259 = ORIENTED_EDGE ( 'NONE', *, *, #231, .T. ) ;
#260 = AXIS2_PLACEMENT_3D ( 'NONE', #294, #38, #182 ) ;
#261 = SHAPE_DEFINITION_REPRESENTATION ( #155, #11 ) ;
#262 = FACE_OUTER_BOUND ( 'NONE', #265, .T. ) ;
#263 = ORIENTED_EDGE ( 'NONE', *, *, #74, .T. ) ;
#264 = CARTESIAN_POINT ( 'NONE',  ( 0.0000000000000000000, 0.9000000000000023500, -4.025000000000000400 ) ) ;
#265 = EDGE_LOOP ( 'NONE', ( #236, #144, #19, #448 ) ) ;
#266 = DIRECTION ( 'NONE',  ( -0.0000000000000000000, -1.000000000000000000, -0.0000000000000000000 ) ) ;
#267 = DIRECTION ( 'NONE',  ( -0.0000000000000000000, -1.000000000000000000, -0.0000000000000000000 ) ) ;
#268 = DIRECTION ( 'NONE',  ( 0.0000000000000000000, -0.0000000000000000000, 1.000000000000000000 ) ) ;
#269 = DIRECTION ( 'NONE',  ( 8.659560562354932900E-017, 0.7071067811865474600, -0.7071067811865474600 ) ) ;
#270 = APPROVAL_DATE_TIME ( #75, #97 ) ;
#271 = CIRCLE ( 'NONE', #352, 4.874999999999997300 ) ;
#272 = SECURITY_CLASSIFICATION ( '', '', #244 ) ;
#273 = EDGE_CURVE ( 'NONE', #30, #111, #408, .T. ) ;
#274 = LINE ( 'NONE', #114, #375 ) ;
#275 = VECTOR ( 'NONE', #424, 1000.000000000000000 ) ;
#276 = DIRECTION ( 'NONE',  ( 0.0000000000000000000, 1.000000000000000000, 0.0000000000000000000 ) ) ;
#277 = VERTEX_POINT ( 'NONE', #234 ) ;
#278 = APPROVAL_STATUS ( 'not_yet_approved' ) ;
#279 = AXIS2_PLACEMENT_3D ( 'NONE', #34, #328, #67 ) ;
#280 = CALENDAR_DATE ( 2021, 26, 2 ) ;
#281 = ORIENTED_EDGE ( 'NONE', *, *, #157, .F. ) ;
#282 = EDGE_CURVE ( 'NONE', #24, #449, #152, .T. ) ;
#283 = CONICAL_SURFACE ( 'NONE', #181, 4.974999999999999600, 0.7853981633974482800 ) ;
#284 = ORIENTED_EDGE ( 'NONE', *, *, #139, .T. ) ;
#285 = DATE_AND_TIME ( #380, #360 ) ;
#286 = ORIENTED_EDGE ( 'NONE', *, *, #193, .F. ) ;
#287 = ORIENTED_EDGE ( 'NONE', *, *, #74, .F. ) ;
#288 = DIRECTION ( 'NONE',  ( 0.0000000000000000000, -0.7071067811865474600, -0.7071067811865474600 ) ) ;
#289 = CC_DESIGN_PERSON_AND_ORGANIZATION_ASSIGNMENT ( #250, #116, ( #272 ) ) ;
#290 = DIRECTION ( 'NONE',  ( 0.0000000000000000000, 0.0000000000000000000, 1.000000000000000000 ) ) ;
#291 = DIRECTION ( 'NONE',  ( 0.0000000000000000000, 0.0000000000000000000, 1.000000000000000000 ) ) ;
#292 = CIRCLE ( 'NONE', #93, 4.874999999999999100 ) ;
#293 = ORIENTED_EDGE ( 'NONE', *, *, #446, .T. ) ;
#294 = CARTESIAN_POINT ( 'NONE',  ( 0.0000000000000000000, 0.8999999999999989100, 0.0000000000000000000 ) ) ;
#295 = CARTESIAN_POINT ( 'NONE',  ( 6.031385485800712200E-016, 1.000000000000000000, 4.874999999999997300 ) ) ;
#296 = DIRECTION ( 'NONE',  ( -0.0000000000000000000, -1.000000000000000000, -0.0000000000000000000 ) ) ;
#297 = DIRECTION ( 'NONE',  ( -0.0000000000000000000, -1.000000000000000000, -0.0000000000000000000 ) ) ;
#298 = DATE_AND_TIME ( #388, #23 ) ;
#299 = AXIS2_PLACEMENT_3D ( 'NONE', #65, #363, #390 ) ;
#300 = DIRECTION ( 'NONE',  ( -0.0000000000000000000, -1.000000000000000000, -0.0000000000000000000 ) ) ;
#301 = ORIENTED_EDGE ( 'NONE', *, *, #341, .F. ) ;
#302 = ADVANCED_FACE ( 'NONE', ( #252 ), #64, .F. ) ;
#303 = CARTESIAN_POINT ( 'NONE',  ( 0.0000000000000000000, 1.000000000000000000, -4.025000000000000400 ) ) ;
#304 = AXIS2_PLACEMENT_3D ( 'NONE', #87, #276, #121 ) ;
#305 = CARTESIAN_POINT ( 'NONE',  ( 4.929203366568097200E-016, -0.9000000000000005800, 4.025000000000000400 ) ) ;
#306 = LINE ( 'NONE', #391, #122 ) ;
#307 = PRODUCT_DEFINITION ( 'UNKNOWN', '', #223, #437 ) ;
#308 = ORIENTED_EDGE ( 'NONE', *, *, #55, .F. ) ;
#309 = ADVANCED_FACE ( 'NONE', ( #127 ), #383, .T. ) ;
#310 = ADVANCED_FACE ( 'NONE', ( #422, #36 ), #330, .F. ) ;
#311 = VECTOR ( 'NONE', #255, 1000.000000000000000 ) ;
#312 = DIRECTION ( 'NONE',  ( -0.0000000000000000000, -1.000000000000000000, -0.0000000000000000000 ) ) ;
#313 = ORIENTED_EDGE ( 'NONE', *, *, #231, .F. ) ;
#314 = CARTESIAN_POINT ( 'NONE',  ( 0.0000000000000000000, 1.000000000000000000, 0.0000000000000000000 ) ) ;
#315 = CARTESIAN_POINT ( 'NONE',  ( 0.0000000000000000000, 1.000000000000000000, 0.0000000000000000000 ) ) ;
#316 = VECTOR ( 'NONE', #432, 1000.000000000000100 ) ;
#317 = ORIENTED_EDGE ( 'NONE', *, *, #14, .F. ) ;
#318 = EDGE_CURVE ( 'NONE', #253, #220, #35, .T. ) ;
#319 = DIRECTION ( 'NONE',  ( 0.0000000000000000000, 0.7071067811865444600, 0.7071067811865505700 ) ) ;
#320 = EDGE_LOOP ( 'NONE', ( #42, #308, #210, #6 ) ) ;
#321 = AXIS2_PLACEMENT_3D ( 'NONE', #429, #266, #39 ) ;
#322 = ORIENTED_EDGE ( 'NONE', *, *, #94, .F. ) ;
#323 = CARTESIAN_POINT ( 'NONE',  ( 4.929203366568097200E-016, 0.9000000000000023500, -4.025000000000000400 ) ) ;
#324 = CARTESIAN_POINT ( 'NONE',  ( 0.0000000000000000000, -0.9000000000000005800, -4.025000000000000400 ) ) ;
#325 = AXIS2_PLACEMENT_3D ( 'NONE', #397, #267, #195 ) ;
#326 = CARTESIAN_POINT ( 'NONE',  ( 0.0000000000000000000, 1.000000000000000000, -4.874999999999997300 ) ) ;
#327 = COORDINATED_UNIVERSAL_TIME_OFFSET ( 6, 0, .BEHIND. ) ;
#328 = DIRECTION ( 'NONE',  ( -0.0000000000000000000, 1.000000000000000000, -0.0000000000000000000 ) ) ;
#329 = CC_DESIGN_PERSON_AND_ORGANIZATION_ASSIGNMENT ( #165, #48, ( #230 ) ) ;
#330 = PLANE ( 'NONE',  #215 ) ;
#331 = FACE_OUTER_BOUND ( 'NONE', #84, .T. ) ;
#332 = ORIENTED_EDGE ( 'NONE', *, *, #37, .T. ) ;
#333 = DIRECTION ( 'NONE',  ( 0.0000000000000000000, 0.0000000000000000000, -1.000000000000000000 ) ) ;
#334 = CARTESIAN_POINT ( 'NONE',  ( 0.0000000000000000000, 0.9000000000000023500, 0.0000000000000000000 ) ) ;
#335 = CARTESIAN_POINT ( 'NONE',  ( 4.929203366568097200E-016, 0.9000000000000023500, 4.025000000000000400 ) ) ;
#336 = PERSON_AND_ORGANIZATION ( #199, #212 ) ;
#337 = APPROVAL ( #342, 'UNSPECIFIED' ) ;
#338 = DIRECTION ( 'NONE',  ( -0.0000000000000000000, 1.000000000000000000, -0.0000000000000000000 ) ) ;
#339 = CIRCLE ( 'NONE', #219, 4.874999999999999100 ) ;
#340 = MANIFOLD_SOLID_BREP ( 'Chamfer1', #379 ) ;
#341 = EDGE_CURVE ( 'NONE', #243, #24, #257, .T. ) ;
#342 = APPROVAL_STATUS ( 'not_yet_approved' ) ;
#343 = APPLICATION_CONTEXT ( 'configuration controlled 3d designs of mechanical parts and assemblies' ) ;
#344 = CIRCLE ( 'NONE', #279, 4.974999999999999600 ) ;
#345 = ORIENTED_EDGE ( 'NONE', *, *, #169, .F. ) ;
#346 = EDGE_LOOP ( 'NONE', ( #109, #190, #189, #161 ) ) ;
#347 = DIRECTION ( 'NONE',  ( 0.0000000000000000000, 0.0000000000000000000, 1.000000000000000000 ) ) ;
#348 = AXIS2_PLACEMENT_3D ( 'NONE', #136, #180, #221 ) ;
#349 = CARTESIAN_POINT ( 'NONE',  ( 5.051668046482831800E-016, -1.000000000000000000, 4.124999999999999100 ) ) ;
#350 = LOCAL_TIME ( 13, 45, 31.00000000000000000, #52 ) ;
#351 = LINE ( 'NONE', #355, #258 ) ;
#352 = AXIS2_PLACEMENT_3D ( 'NONE', #436, #441, #115 ) ;
#353 = ORIENTED_EDGE ( 'NONE', *, *, #318, .T. ) ;
#354 = AXIS2_PLACEMENT_3D ( 'NONE', #79, #370, #41 ) ;
#355 = CARTESIAN_POINT ( 'NONE',  ( 0.0000000000000000000, 0.9000000000000023500, 4.025000000000000400 ) ) ;
#356 = CIRCLE ( 'NONE', #156, 4.124999999999998200 ) ;
#357 = ORIENTED_EDGE ( 'NONE', *, *, #20, .F. ) ;
#358 = DIRECTION ( 'NONE',  ( -0.0000000000000000000, -1.000000000000000000, -0.0000000000000000000 ) ) ;
#359 = COORDINATED_UNIVERSAL_TIME_OFFSET ( 6, 0, .BEHIND. ) ;
#360 = LOCAL_TIME ( 13, 45, 31.00000000000000000, #12 ) ;
#361 = ORIENTED_EDGE ( 'NONE', *, *, #94, .T. ) ;
#362 = CARTESIAN_POINT ( 'NONE',  ( 0.0000000000000000000, 0.9000000000000023500, 0.0000000000000000000 ) ) ;
#363 = DIRECTION ( 'NONE',  ( 0.0000000000000000000, 1.000000000000000000, 0.0000000000000000000 ) ) ;
#364 = CONICAL_SURFACE ( 'NONE', #200, 4.124999999999999100, 0.7853981633974482800 ) ;
#365 = ORIENTED_EDGE ( 'NONE', *, *, #169, .T. ) ;
#366 = VERTEX_POINT ( 'NONE', #154 ) ;
#367 = DIRECTION ( 'NONE',  ( 0.0000000000000000000, 0.7071067811865474600, 0.7071067811865474600 ) ) ;
#368 = CARTESIAN_POINT ( 'NONE',  ( 0.0000000000000000000, 1.000000000000000000, -4.874999999999997300 ) ) ;
#369 = PRODUCT_RELATED_PRODUCT_CATEGORY ( 'detail', '', ( #230 ) ) ;
#370 = DIRECTION ( 'NONE',  ( -0.0000000000000000000, -1.000000000000000000, -0.0000000000000000000 ) ) ;
#371 = LOCAL_TIME ( 13, 45, 31.00000000000000000, #4 ) ;
#372 = EDGE_LOOP ( 'NONE', ( #101, #410, #286, #301 ) ) ;
#373 = DIRECTION ( 'NONE',  ( 0.0000000000000000000, -1.000000000000000000, 0.0000000000000000000 ) ) ;
#374 =( NAMED_UNIT ( * ) PLANE_ANGLE_UNIT ( ) SI_UNIT ( $, .RADIAN. ) );
#375 = VECTOR ( 'NONE', #367, 1000.000000000000100 ) ;
#376 = AXIS2_PLACEMENT_3D ( 'NONE', #3, #358, #254 ) ;
#377 = LINE ( 'NONE', #323, #427 ) ;
#378 = VERTEX_POINT ( 'NONE', #47 ) ;
#379 = CLOSED_SHELL ( 'NONE', ( #148, #302, #232, #86, #56, #239, #89, #310, #201, #124, #439, #309, #119, #198 ) ) ;
#380 = CALENDAR_DATE ( 2021, 26, 2 ) ;
#381 = ORIENTED_EDGE ( 'NONE', *, *, #157, .T. ) ;
#382 = VERTEX_POINT ( 'NONE', #186 ) ;
#383 = CONICAL_SURFACE ( 'NONE', #28, 4.874999999999997300, 0.7853981633974528300 ) ;
#384 = DIRECTION ( 'NONE',  ( 0.0000000000000000000, 0.0000000000000000000, 1.000000000000000000 ) ) ;
#385 = CIRCLE ( 'NONE', #299, 4.874999999999997300 ) ;
#386 = ORIENTED_EDGE ( 'NONE', *, *, #20, .T. ) ;
#387 = CARTESIAN_POINT ( 'NONE',  ( 6.092617825758081900E-016, 1.000000000000000000, 4.974999999999999600 ) ) ;
#388 = CALENDAR_DATE ( 2021, 26, 2 ) ;
#389 = ORIENTED_EDGE ( 'NONE', *, *, #396, .T. ) ;
#390 = DIRECTION ( 'NONE',  ( 0.0000000000000000000, 0.0000000000000000000, 1.000000000000000000 ) ) ;
#391 = CARTESIAN_POINT ( 'NONE',  ( 0.0000000000000000000, -1.000000000000000000, -4.124999999999999100 ) ) ;
#392 = CIRCLE ( 'NONE', #401, 4.025000000000000400 ) ;
#393 = EDGE_LOOP ( 'NONE', ( #409, #332 ) ) ;
#394 = DIRECTION ( 'NONE',  ( 0.0000000000000000000, 1.000000000000000000, 0.0000000000000000000 ) ) ;
#395 = DIRECTION ( 'NONE',  ( 0.0000000000000000000, 1.000000000000000000, 0.0000000000000000000 ) ) ;
#396 = EDGE_CURVE ( 'NONE', #366, #168, #274, .T. ) ;
#397 = CARTESIAN_POINT ( 'NONE',  ( 0.0000000000000000000, 1.000000000000000000, 0.0000000000000000000 ) ) ;
#398 =( LENGTH_UNIT ( ) NAMED_UNIT ( * ) SI_UNIT ( .MILLI., .METRE. ) );
#399 = CARTESIAN_POINT ( 'NONE',  ( 5.051668046482831800E-016, -1.000000000000000000, 4.124999999999999100 ) ) ;
#400 = CARTESIAN_POINT ( 'NONE',  ( 0.0000000000000000000, 0.0000000000000000000, 0.0000000000000000000 ) ) ;
#401 = AXIS2_PLACEMENT_3D ( 'NONE', #248, #129, #384 ) ;
#402 = CALENDAR_DATE ( 2021, 26, 2 ) ;
#403 = CARTESIAN_POINT ( 'NONE',  ( 0.0000000000000000000, -0.8999999999999998000, -4.974999999999999600 ) ) ;
#404 = VECTOR ( 'NONE', #143, 1000.000000000000100 ) ;
#405 = CIRCLE ( 'NONE', #325, 4.124999999999998200 ) ;
#406 = DATE_TIME_ROLE ( 'creation_date' ) ;
#407 = APPROVAL_ROLE ( '' ) ;
#408 = LINE ( 'NONE', #303, #53 ) ;
#409 = ORIENTED_EDGE ( 'NONE', *, *, #256, .T. ) ;
#410 = ORIENTED_EDGE ( 'NONE', *, *, #149, .T. ) ;
#411 = AXIS2_PLACEMENT_3D ( 'NONE', #315, #207, #60 ) ;
#412 = APPROVAL_PERSON_ORGANIZATION ( #90, #337, #407 ) ;
#413 = VECTOR ( 'NONE', #300, 1000.000000000000000 ) ;
#414 = EDGE_LOOP ( 'NONE', ( #176, #353, #281, #206 ) ) ;
#415 = DIRECTION ( 'NONE',  ( 0.0000000000000000000, 0.0000000000000000000, -1.000000000000000000 ) ) ;
#416 = APPROVAL ( #238, 'UNSPECIFIED' ) ;
#417 = DATE_AND_TIME ( #135, #350 ) ;
#418 = FACE_OUTER_BOUND ( 'NONE', #320, .T. ) ;
#419 = CARTESIAN_POINT ( 'NONE',  ( 0.0000000000000000000, 1.000000000000000000, 0.0000000000000000000 ) ) ;
#420 = DATE_AND_TIME ( #402, #33 ) ;
#421 = DIRECTION ( 'NONE',  ( 0.0000000000000000000, 1.000000000000000000, 0.0000000000000000000 ) ) ;
#422 = FACE_OUTER_BOUND ( 'NONE', #393, .T. ) ;
#423 = CARTESIAN_POINT ( 'NONE',  ( 0.0000000000000000000, -1.000000000000000000, 0.0000000000000000000 ) ) ;
#424 = DIRECTION ( 'NONE',  ( -0.0000000000000000000, -1.000000000000000000, -0.0000000000000000000 ) ) ;
#425 = DIRECTION ( 'NONE',  ( 0.0000000000000000000, -0.0000000000000000000, 1.000000000000000000 ) ) ;
#426 = CARTESIAN_POINT ( 'NONE',  ( 0.0000000000000000000, 0.8999999999999989100, -4.974999999999999600 ) ) ;
#427 = VECTOR ( 'NONE', #211, 1000.000000000000000 ) ;
#428 = VERTEX_POINT ( 'NONE', #335 ) ;
#429 = CARTESIAN_POINT ( 'NONE',  ( 0.0000000000000000000, -0.9000000000000005800, 0.0000000000000000000 ) ) ;
#430 = EDGE_LOOP ( 'NONE', ( #100, #293, #25, #444 ) ) ;
#431 = CARTESIAN_POINT ( 'NONE',  ( 0.0000000000000000000, -0.8999999999999998000, 0.0000000000000000000 ) ) ;
#432 = DIRECTION ( 'NONE',  ( 8.659560562354969800E-017, -0.7071067811865443500, 0.7071067811865506800 ) ) ;
#433 = DIRECTION ( 'NONE',  ( 0.0000000000000000000, 0.0000000000000000000, 1.000000000000000000 ) ) ;
#434 = CARTESIAN_POINT ( 'NONE',  ( 0.0000000000000000000, -1.000000000000000000, 0.0000000000000000000 ) ) ;
#435 = CIRCLE ( 'NONE', #166, 4.974999999999999600 ) ;
#436 = CARTESIAN_POINT ( 'NONE',  ( 0.0000000000000000000, 1.000000000000000000, 0.0000000000000000000 ) ) ;
#437 = DESIGN_CONTEXT ( 'detailed design', #343, 'design' ) ;
#438 = DIRECTION ( 'NONE',  ( 0.0000000000000000000, 0.0000000000000000000, 1.000000000000000000 ) ) ;
#439 = ADVANCED_FACE ( 'NONE', ( #95 ), #283, .T. ) ;
#440 = CC_DESIGN_PERSON_AND_ORGANIZATION_ASSIGNMENT ( #204, #159, ( #307 ) ) ;
#441 = DIRECTION ( 'NONE',  ( 0.0000000000000000000, 1.000000000000000000, 0.0000000000000000000 ) ) ;
#442 = VECTOR ( 'NONE', #10, 1000.000000000000100 ) ;
#443 = CIRCLE ( 'NONE', #128, 4.124999999999999100 ) ;
#444 = ORIENTED_EDGE ( 'NONE', *, *, #396, .F. ) ;
#445 = ORIENTED_EDGE ( 'NONE', *, *, #273, .T. ) ;
#446 = EDGE_CURVE ( 'NONE', #54, #449, #99, .T. ) ;
#447 = APPROVAL_ROLE ( '' ) ;
#448 = ORIENTED_EDGE ( 'NONE', *, *, #130, .T. ) ;
#449 = VERTEX_POINT ( 'NONE', #403 ) ;
ENDSEC;
END-ISO-10303-21;
